<svg width="124" height="49" viewBox="0 0 124 49" fill="none" xmlns="http://www.w3.org/2000/svg">
<path d="M114.05 30.1001H107.61V37.4901H114.05V30.1001Z" fill="white"/>
<path d="M123.49 7.15012V0.870117H114.05L107.61 7.15012V25.6801H114.05V18.8301H123.49V12.5401H114.05V7.15012H123.49Z" fill="white"/>
<path d="M10.49 12.5402H6.44L0.15 18.8302H10.49C14.33 18.8302 17.28 21.6702 17.28 25.7202C17.28 29.7702 14.34 32.6102 10.49 32.6102H6.43V23.3202H0V48.9202H6.44V38.9002H10.5C17.84 38.9002 23.72 33.1602 23.72 25.7302C23.72 18.2902 17.83 12.5602 10.5 12.5602L10.49 12.5402Z" fill="white"/>
<path d="M28.1201 18.9802V25.7802H34.5601V18.9802H43.8401V12.5402H34.5601L28.1201 18.9802Z" fill="white"/>
<path d="M34.5601 30.2001H28.1201V37.5001H34.5601V30.2001Z" fill="white"/>
<path d="M90.04 12.4901C82.12 12.4901 76.75 18.2501 76.75 25.7101C76.75 32.3001 80.86 37.5601 87.46 38.7001V33.1001C85.54 32.3801 84.06 30.8301 83.47 28.3701H102.28C102.48 27.5201 102.53 26.6701 102.53 25.7201C102.53 18.3601 97.41 12.5001 90.04 12.5001V12.4901ZM83.42 23.3001C84.22 20.1501 86.53 18.2901 89.99 18.2901C92.7 18.2901 95.31 19.6901 96.06 23.3001H83.42Z" fill="white"/>
<path d="M91.8203 33.3901V38.8401C94.9503 38.5101 97.6203 37.2401 99.4903 35.1401L95.4103 31.0701C94.7603 32.1401 93.4303 33.0301 91.8203 33.4001V33.3901Z" fill="white"/>
<path d="M59.7403 12.5402V18.8302C63.5803 18.8302 66.5303 21.6702 66.5303 25.7202C66.5303 29.7702 63.5903 32.6102 59.7403 32.6102C55.8903 32.6102 53.0003 29.7702 53.0003 25.7202C53.0003 23.7402 53.7103 22.0502 54.8803 20.8402L51.6603 15.2602C48.5503 17.6402 46.5703 21.4002 46.5703 25.7302C46.5703 33.1702 52.4103 38.9002 59.7403 38.9002C67.0703 38.9002 72.9603 33.1602 72.9603 25.7302C72.9603 18.3002 67.0703 12.5602 59.7403 12.5602V12.5402Z" fill="white"/>
</svg>
